<?xml version="1.0" encoding="UTF-8"?>
<svg xmlns="http://www.w3.org/2000/svg" width="464.9000244140625" height="234.39996337890625" viewBox="423.0 440.9000244140625 464.9000244140625 234.39996337890625" preserveAspectRatio="none">
  <g>
    <defs>
      <path id="s-Union_1-d1224" d="M609.2999877929688 483.29998779296875 C609.566650390625 483.3000183105469 609.7000122070312 483.5666809082031 609.7000122070312 484.1000061035156 C609.9666748046875 484.63336181640625 610.2333374023438 485.0333251953125 610.5 485.29998779296875 C624.63330078125 502.1000061035156 624.8999633789062 533.433349609375 611.2999877929688 579.2999877929688 C605.9666748046875 597.7000122070312 599.433349609375 614.1666870117188 591.7000122070312 628.7000122070312 C583.9666748046875 643.2333374023438 576.7666625976562 651.433349609375 570.0999755859375 653.2999877929688 C559.1666870117188 634.36669921875 561.7000122070312 601.2999877929688 577.7000122070312 554.0999755859375 C586.5 527.433349609375 596.63330078125 503.8333435058594 608.0999755859375 483.29998779296875 C608.3666381835938 483.3000183105469 608.5999755859375 483.3000183105469 608.7999877929688 483.3000183105469 C609.0 483.3000183105469 609.1666870117188 483.3000183105469 609.2999877929688 483.29998779296875 Z M614.0999755859375 440.9000244140625 L611.7000122070312 442.5 C607.9666748046875 443.5666809082031 601.9666748046875 450.9000244140625 593.7000122070312 464.5 L590.9000244140625 465.29998779296875 C590.63330078125 465.29998779296875 590.0999755859375 465.0999755859375 589.2999877929688 464.70001220703125 C588.5 464.29998779296875 587.9666748046875 464.1000061035156 587.7000122070312 464.1000061035156 C585.566650390625 464.63336181640625 584.7666625976562 465.433349609375 585.2999877929688 466.5 C585.2999877929688 467.29998779296875 586.0333251953125 468.29998779296875 587.5 469.5 C588.9666748046875 470.70001220703125 589.433349609375 471.9666748046875 588.9000244140625 473.29998779296875 C574.7666625976562 501.0333251953125 564.63330078125 523.0333251953125 558.5 539.2999877929688 C553.433349609375 553.1666870117188 549.3666381835938 568.7666625976562 546.2999877929688 586.0999755859375 C543.2333374023438 603.433349609375 541.8333129882812 617.9666748046875 542.0999755859375 629.7000122070312 C542.63330078125 641.1666870117188 545.7666625976562 650.9000244140625 551.5 658.9000244140625 C557.2333374023438 666.9000244140625 565.566650390625 670.9000244140625 576.5 670.9000244140625 C584.2333374023438 670.9000244140625 592.3666381835938 665.1666870117188 600.9000244140625 653.7000122070312 C609.433349609375 642.2333374023438 616.433349609375 630.0333251953125 621.9000244140625 617.0999755859375 C627.3666381835938 604.1666870117188 631.566650390625 592.0999755859375 634.5 580.9000244140625 C636.63330078125 571.8333129882812 638.3666381835938 563.8333129882812 639.7000122070312 556.9000244140625 C641.0333251953125 549.9666748046875 642.0333251953125 541.433349609375 642.7000122070312 531.2999877929688 C643.3666381835938 521.1666870117188 643.0333251953125 512.36669921875 641.7000122070312 504.9000244140625 C640.3666381835938 497.433349609375 637.5 490.29998779296875 633.0999755859375 483.5 C628.7000122070312 476.70001220703125 622.7666625976562 471.70001220703125 615.2999877929688 468.5 C615.2999877929688 466.6333312988281 616.9666748046875 463.6333312988281 620.2999877929688 459.5 C623.63330078125 455.3666687011719 626.0999755859375 453.0333251953125 627.7000122070312 452.5 C628.2333374023438 452.23333740234375 629.1666870117188 450.9000244140625 630.5 448.5 C629.9666748046875 443.70001220703125 625.7000122070312 441.3000183105469 617.7000122070312 441.29998779296875 L614.0999755859375 441.29998779296875 L614.0999755859375 440.9000244140625 Z M496.20001220703125 456.1000061035156 C488.4666748046875 456.3666687011719 478.79998779296875 458.8333435058594 467.20001220703125 463.5 C455.6000061035156 468.16668701171875 448.4666748046875 473.566650390625 445.79998779296875 479.70001220703125 C445.26666259765625 482.63336181640625 446.066650390625 485.7666931152344 448.20001220703125 489.1000061035156 C450.3333435058594 492.433349609375 452.8666687011719 494.6333312988281 455.79998779296875 495.70001220703125 C457.1333312988281 496.5 458.066650390625 496.9000244140625 458.6000061035156 496.9000244140625 C459.1333312988281 496.9000244140625 459.79998779296875 496.5 460.6000061035156 495.70001220703125 C464.8666687011719 489.5666809082031 471.6000061035156 484.3000183105469 480.79998779296875 479.9000244140625 C490.0 475.5 497.933349609375 473.29998779296875 504.6000061035156 473.29998779296875 C510.73333740234375 473.29998779296875 515.86669921875 474.9666748046875 520.0 478.29998779296875 C524.13330078125 481.63336181640625 526.2000122070312 485.5666809082031 526.2000122070312 490.1000061035156 C526.2000122070312 497.5666809082031 520.7999877929688 508.433349609375 510.0 522.7000122070312 C499.20001220703125 536.9666748046875 487.3999938964844 550.8333740234375 474.6000061035156 564.2999877929688 C461.79998779296875 577.7666625976562 450.0 592.0333251953125 439.20001220703125 607.0999755859375 C428.3999938964844 622.1666870117188 423.0 634.0999755859375 423.0 642.9000244140625 C423.0 652.2333374023438 426.5333251953125 659.9666748046875 433.6000061035156 666.0999755859375 C440.6666564941406 672.2333374023438 448.20001220703125 675.2999877929688 456.20001220703125 675.2999877929688 C458.8666687011719 675.2999877929688 464.79998779296875 674.2333374023438 474.0 672.0999755859375 C483.20001220703125 669.9666748046875 488.20001220703125 668.36669921875 489.0 667.2999877929688 C489.79998779296875 666.7666625976562 494.8666687011719 665.0333251953125 504.20001220703125 662.0999755859375 C502.8666687011719 661.0333251953125 502.20001220703125 660.2333374023438 502.20001220703125 659.7000122070312 C502.73333740234375 659.1666870117188 503.6000061035156 658.7000122070312 504.79998779296875 658.2999877929688 C506.0 657.9000244140625 506.73333740234375 657.566650390625 507.0 657.2999877929688 C507.0 657.0333251953125 505.1333312988281 655.7000122070312 501.3999938964844 653.2999877929688 C502.73333740234375 652.2333374023438 504.20001220703125 651.566650390625 505.79998779296875 651.2999877929688 C505.0 649.9666748046875 505.0 648.5 505.79998779296875 646.9000244140625 L507.3999938964844 646.0999755859375 L508.20001220703125 644.0999755859375 L506.20001220703125 643.7000122070312 C504.3333435058594 643.9666748046875 496.20001220703125 645.5 481.79998779296875 648.2999877929688 C467.4000244140625 651.0999755859375 456.6000061035156 652.5 449.4000244140625 652.5 C448.066650390625 652.5 446.6000061035156 652.0999755859375 445.0 651.2999877929688 C443.3999938964844 650.5 442.6000061035156 649.566650390625 442.6000061035156 648.5 C442.6000061035156 642.0999755859375 446.1333312988281 633.7666625976562 453.20001220703125 623.5 C460.26666259765625 613.2333374023438 468.79998779296875 602.5 478.79998779296875 591.2999877929688 C488.79998779296875 580.0999755859375 498.8666687011719 568.7000122070312 509.0 557.0999755859375 C519.13330078125 545.5 527.7333374023438 533.8333740234375 534.7999877929688 522.0999755859375 C541.86669921875 510.3666687011719 545.4000244140625 500.23333740234375 545.4000244140625 491.70001220703125 C545.4000244140625 479.16668701171875 540.5999755859375 470.1000061035156 531.0 464.5 C521.4000244140625 458.9000244140625 509.79998779296875 456.1000061035156 496.20001220703125 456.1000061035156 Z M719.5999755859375 456.1000061035156 C711.8666381835938 456.3666687011719 702.2000122070312 458.8333435058594 690.5999755859375 463.5 C679.0 468.16668701171875 671.8666381835938 473.566650390625 669.2000122070312 479.70001220703125 C668.6666870117188 482.63336181640625 669.4666748046875 485.7666931152344 671.5999755859375 489.1000061035156 C673.7333374023438 492.433349609375 676.2666625976562 494.6333312988281 679.2000122070312 495.70001220703125 C680.5333251953125 496.5 681.4666748046875 496.9000244140625 682.0 496.9000244140625 C682.5333251953125 496.9000244140625 683.2000122070312 496.5 684.0 495.70001220703125 C688.2666625976562 489.5666809082031 695.0 484.3000183105469 704.2000122070312 479.9000244140625 C713.4000244140625 475.5 721.3333129882812 473.29998779296875 728.0 473.29998779296875 C734.13330078125 473.29998779296875 739.2666625976562 474.9666748046875 743.4000244140625 478.29998779296875 C747.5333251953125 481.63336181640625 749.5999755859375 485.5666809082031 749.5999755859375 490.1000061035156 C749.5999755859375 497.5666809082031 744.2000122070312 508.433349609375 733.4000244140625 522.7000122070312 C722.5999755859375 536.9666748046875 710.7999877929688 550.8333740234375 698.0 564.2999877929688 C685.2000122070312 577.7666625976562 673.4000244140625 592.0333251953125 662.5999755859375 607.0999755859375 C651.7999877929688 622.1666870117188 646.4000244140625 634.0999755859375 646.4000244140625 642.9000244140625 C646.4000244140625 652.2333374023438 649.933349609375 659.9666748046875 657.0 666.0999755859375 C664.066650390625 672.2333374023438 671.5999755859375 675.2999877929688 679.5999755859375 675.2999877929688 C682.2666625976562 675.2999877929688 688.2000122070312 674.2333374023438 697.4000244140625 672.0999755859375 C706.5999755859375 669.9666748046875 711.5999755859375 668.36669921875 712.4000244140625 667.2999877929688 C713.2000122070312 666.7666625976562 718.2666625976562 665.0333251953125 727.5999755859375 662.0999755859375 C726.2666625976562 661.0333251953125 725.5999755859375 660.2333374023438 725.5999755859375 659.7000122070312 C726.13330078125 659.1666870117188 727.0 658.7000122070312 728.2000122070312 658.2999877929688 C729.4000244140625 657.9000244140625 730.13330078125 657.566650390625 730.4000244140625 657.2999877929688 C730.4000244140625 657.0333251953125 728.5333251953125 655.7000122070312 724.7999877929688 653.2999877929688 C726.1333618164062 652.2333374023438 727.5999755859375 651.566650390625 729.2000122070312 651.2999877929688 C728.4000244140625 649.9666748046875 728.4000244140625 648.5 729.2000122070312 646.9000244140625 L730.7999877929688 646.0999755859375 L731.5999755859375 644.0999755859375 L729.5999755859375 643.7000122070312 C727.7333374023438 643.9666748046875 719.5999755859375 645.5 705.2000122070312 648.2999877929688 C690.7999877929688 651.0999755859375 680.0 652.5 672.7999877929688 652.5 C671.4666748046875 652.5 670.0 652.0999755859375 668.4000244140625 651.2999877929688 C666.7999877929688 650.5 666.0 649.566650390625 666.0 648.5 C666.0 642.0999755859375 669.5333251953125 633.7666625976562 676.5999755859375 623.5 C683.6666870117188 613.2333374023438 692.2000122070312 602.5 702.2000122070312 591.2999877929688 C712.2000122070312 580.0999755859375 722.2666625976562 568.7000122070312 732.4000244140625 557.0999755859375 C742.5333251953125 545.5 751.1333618164062 533.8333740234375 758.2000122070312 522.0999755859375 C765.2666625976562 510.3666687011719 768.7999877929688 500.23333740234375 768.7999877929688 491.70001220703125 C768.7999877929688 479.16668701171875 764.0 470.1000061035156 754.4000244140625 464.5 C744.7999877929688 458.9000244140625 733.2000122070312 456.1000061035156 719.5999755859375 456.1000061035156 Z M838.7000122070312 456.1000061035156 C830.9666748046875 456.3666687011719 821.2999877929688 458.8333435058594 809.7000122070312 463.5 C798.0999755859375 468.16668701171875 790.9666748046875 473.566650390625 788.2999877929688 479.70001220703125 C787.7666625976562 482.63336181640625 788.566650390625 485.7666931152344 790.7000122070312 489.1000061035156 C792.8333129882812 492.433349609375 795.3666381835938 494.6333312988281 798.2999877929688 495.70001220703125 C799.63330078125 496.5 800.566650390625 496.9000244140625 801.0999755859375 496.9000244140625 C801.63330078125 496.9000244140625 802.2999877929688 496.5 803.0999755859375 495.70001220703125 C807.3666381835938 489.5666809082031 814.0999755859375 484.3000183105469 823.2999877929688 479.9000244140625 C832.5 475.5 840.433349609375 473.29998779296875 847.0999755859375 473.29998779296875 C853.2333374023438 473.29998779296875 858.3666381835938 474.9666748046875 862.5 478.29998779296875 C866.63330078125 481.63336181640625 868.7000122070312 485.5666809082031 868.7000122070312 490.1000061035156 C868.7000122070312 497.5666809082031 863.2999877929688 508.433349609375 852.5 522.7000122070312 C841.7000122070312 536.9666748046875 829.9000244140625 550.8333740234375 817.0999755859375 564.2999877929688 C804.2999877929688 577.7666625976562 792.5 592.0333251953125 781.7000122070312 607.0999755859375 C770.9000244140625 622.1666870117188 765.5 634.0999755859375 765.5 642.9000244140625 C765.5 652.2333374023438 769.0333251953125 659.9666748046875 776.0999755859375 666.0999755859375 C783.1666870117188 672.2333374023438 790.7000122070312 675.2999877929688 798.7000122070312 675.2999877929688 C801.3666381835938 675.2999877929688 807.2999877929688 674.2333374023438 816.5 672.0999755859375 C825.7000122070312 669.9666748046875 830.7000122070312 668.36669921875 831.5 667.2999877929688 C832.2999877929688 666.7666625976562 837.3666381835938 665.0333251953125 846.7000122070312 662.0999755859375 C845.3666381835938 661.0333251953125 844.7000122070312 660.2333374023438 844.7000122070312 659.7000122070312 C845.2333374023438 659.1666870117188 846.0999755859375 658.7000122070312 847.2999877929688 658.2999877929688 C848.5 657.9000244140625 849.2333374023438 657.566650390625 849.5 657.2999877929688 C849.5 657.0333251953125 847.63330078125 655.7000122070312 843.9000244140625 653.2999877929688 C845.2333374023438 652.2333374023438 846.7000122070312 651.566650390625 848.2999877929688 651.2999877929688 C847.5 649.9666748046875 847.5 648.5 848.2999877929688 646.9000244140625 L849.9000244140625 646.0999755859375 L850.7000122070312 644.0999755859375 L848.7000122070312 643.7000122070312 C846.8333129882812 643.9666748046875 838.7000122070312 645.5 824.2999877929688 648.2999877929688 C809.9000244140625 651.0999755859375 799.1000366210938 652.5 791.9000244140625 652.5 C790.566650390625 652.5 789.0999755859375 652.0999755859375 787.5 651.2999877929688 C785.9000244140625 650.5 785.0999755859375 649.566650390625 785.0999755859375 648.5 C785.0999755859375 642.0999755859375 788.63330078125 633.7666625976562 795.7000122070312 623.5 C802.7666625976562 613.2333374023438 811.2999877929688 602.5 821.2999877929688 591.2999877929688 C831.2999877929688 580.0999755859375 841.3666381835938 568.7000122070312 851.5 557.0999755859375 C861.63330078125 545.5 870.2333374023438 533.8333740234375 877.2999877929688 522.0999755859375 C884.3666381835938 510.3666687011719 887.8999633789062 500.23333740234375 887.9000244140625 491.70001220703125 C887.8999633789062 479.16668701171875 883.0999755859375 470.1000061035156 873.5 464.5 C863.8999633789062 458.9000244140625 852.2999877929688 456.1000061035156 838.7000122070312 456.1000061035156 Z "></path>
    </defs>
    <g>
      <use xmlns:xlink="http://www.w3.org/1999/xlink" xlink:href="#s-Union_1-d1224" fill="#333333" fill-opacity="1.0" filter="none"></use>
    </g>
  </g>
</svg>
